<svg width="800" height="400" viewBox="0 0 800 400" xmlns="http://www.w3.org/2000/svg"><mask id="satori_om-id"><rect x="0" y="0" width="800" height="400" fill="#fff"/></mask><rect x="0" y="0" width="800" height="400" fill="#fff"/><clipPath id="satori_cp-id-0"><rect x="300" y="61" width="200" height="200"/></clipPath><mask id="satori_om-id-0"><rect x="300" y="61" width="200" height="200" fill="#fff"/></mask><image x="300" y="61" width="200" height="200" href="data:image/svg+xml;utf8,%3Csvg  xmlns=%22http://www.w3.org/2000/svg%22 preserveAspectRatio=%22xMinYMin meet%22 width=%22NaN%22 height=%22NaN%22 viewBox=%220 0 256 256%22%3E%3Cpath d=%22M0 0h256v256H0V0z%22 fill=%22%23F7DF1E%22%3E%3C/path%3E%3Cpath d=%22M67.312 213.932l19.59-11.856c3.78 6.701 7.218 12.371 15.465 12.371 7.905 0 12.89-3.092 12.89-15.12v-81.798h24.057v82.138c0 24.917-14.606 36.259-35.916 36.259-19.245 0-30.416-9.967-36.087-21.996M152.381 211.354l19.588-11.341c5.157 8.421 11.859 14.607 23.715 14.607 9.969 0 16.325-4.984 16.325-11.858 0-8.248-6.53-11.17-17.528-15.98l-6.013-2.58c-17.357-7.387-28.87-16.667-28.87-36.257 0-18.044 13.747-31.792 35.228-31.792 15.294 0 26.292 5.328 34.196 19.247L210.29 147.43c-4.125-7.389-8.591-10.31-15.465-10.31-7.046 0-11.514 4.468-11.514 10.31 0 7.217 4.468 10.14 14.778 14.608l6.014 2.577c20.45 8.765 31.963 17.7 31.963 37.804 0 21.654-17.012 33.51-39.867 33.51-22.339 0-36.774-10.654-43.819-24.574%22%3E%3C/path%3E%3C/svg%3E" preserveAspectRatio="none" clip-path="url(#satori_cp-id-0)" mask="url(#satori_om-id-0)"/><mask id="satori_om-id-0-0"><rect x="300" y="61" width="0" height="200" fill="#fff"/></mask><mask id="satori_om-id-0-1"><rect x="300" y="61" width="0" height="200" fill="#fff"/></mask><mask id="satori_om-id-1"><rect x="23" y="301" width="754" height="39" fill="#fff"/></mask><g  ><path fill="black" d="M34.3 325.0L34.3 308.7L39.2 308.7L39.2 325.0Q39.2 327.2 38.2 328.9Q37.2 330.5 35.4 331.4Q33.6 332.3 31.3 332.3L31.3 332.3Q29.2 332.3 27.4 331.6Q25.7 330.8 24.7 329.3Q23.7 327.8 23.8 325.5L23.8 325.5L28.6 325.5Q28.7 326.4 29.0 327.0Q29.4 327.7 30.0 328.0Q30.6 328.4 31.5 328.4L31.5 328.4Q32.4 328.4 33.1 328.0Q33.7 327.6 34.0 326.8Q34.3 326.1 34.3 325.0L34.3 325.0ZM48.1 332.3L48.1 332.3Q46.5 332.3 45.2 331.7Q43.9 331.2 43.1 330.0Q42.4 328.9 42.4 327.1L42.4 327.1Q42.4 325.7 42.9 324.7Q43.4 323.7 44.3 323.1Q45.3 322.5 46.4 322.2Q47.6 321.9 48.9 321.8L48.9 321.8Q50.4 321.6 51.4 321.4Q52.3 321.3 52.7 321.0Q53.1 320.7 53.1 320.2L53.1 320.2L53.1 320.1Q53.1 319.0 52.5 318.4Q51.8 317.9 50.5 317.9L50.5 317.9Q49.2 317.9 48.5 318.4Q47.7 319 47.4 319.9L47.4 319.9L43.0 319.5Q43.3 317.9 44.3 316.7Q45.3 315.6 46.9 314.9Q48.5 314.3 50.6 314.3L50.6 314.3Q52.0 314.3 53.4 314.7Q54.7 315 55.7 315.7Q56.8 316.4 57.4 317.6Q58.0 318.7 58.0 320.2L58.0 320.2L58.0 332L53.4 332L53.4 329.6L53.3 329.6Q52.8 330.4 52.1 331.0Q51.4 331.6 50.4 332.0Q49.4 332.3 48.1 332.3ZM49.5 329.0L49.5 329.0Q50.6 329.0 51.4 328.6Q52.2 328.1 52.7 327.4Q53.2 326.7 53.2 325.8L53.2 325.8L53.2 323.9Q52.9 324.1 52.6 324.2Q52.2 324.3 51.7 324.4Q51.2 324.5 50.7 324.6Q50.2 324.6 49.8 324.7L49.8 324.7Q49.0 324.8 48.3 325.1Q47.7 325.4 47.3 325.8Q47.0 326.3 47.0 327.0L47.0 327.0Q47.0 328.0 47.7 328.5Q48.4 329.0 49.5 329.0ZM72.3 314.5L77.4 314.5L71.3 332L65.8 332L59.7 314.5L64.8 314.5L68.5 327.0L68.6 327.0L72.3 314.5ZM84.3 332.3L84.3 332.3Q82.7 332.3 81.4 331.7Q80.1 331.2 79.3 330.0Q78.5 328.9 78.5 327.1L78.5 327.1Q78.5 325.7 79.1 324.7Q79.6 323.7 80.5 323.1Q81.5 322.5 82.6 322.2Q83.8 321.9 85.1 321.8L85.1 321.8Q86.6 321.6 87.6 321.4Q88.5 321.3 88.9 321.0Q89.3 320.7 89.3 320.2L89.3 320.2L89.3 320.1Q89.3 319.0 88.7 318.4Q88.0 317.9 86.7 317.9L86.7 317.9Q85.4 317.9 84.7 318.4Q83.9 319 83.6 319.9L83.6 319.9L79.2 319.5Q79.5 317.9 80.5 316.7Q81.5 315.6 83.1 314.9Q84.7 314.3 86.8 314.3L86.8 314.3Q88.2 314.3 89.6 314.7Q90.9 315 91.9 315.7Q93.0 316.4 93.6 317.6Q94.2 318.7 94.2 320.2L94.2 320.2L94.2 332L89.6 332L89.6 329.6L89.4 329.6Q89.0 330.4 88.3 331.0Q87.6 331.6 86.6 332.0Q85.6 332.3 84.3 332.3ZM85.7 329.0L85.7 329.0Q86.8 329.0 87.6 328.6Q88.4 328.1 88.9 327.4Q89.4 326.7 89.4 325.8L89.4 325.8L89.4 323.9Q89.1 324.1 88.7 324.2Q88.4 324.3 87.9 324.4Q87.4 324.5 86.9 324.6Q86.4 324.6 86 324.7L86 324.7Q85.1 324.8 84.5 325.1Q83.9 325.4 83.5 325.8Q83.2 326.3 83.2 327.0L83.2 327.0Q83.2 328.0 83.9 328.5Q84.6 329.0 85.7 329.0ZM115.4 315.4L110.6 315.4Q110.5 314.0 109.5 313.3Q108.4 312.5 106.7 312.5L106.7 312.5Q105.5 312.5 104.6 312.9Q103.8 313.2 103.4 313.8Q102.9 314.4 102.9 315.1L102.9 315.1Q102.9 315.8 103.2 316.2Q103.5 316.7 104 317.0Q104.5 317.4 105.2 317.6Q105.9 317.8 106.6 318.0L106.6 318.0L108.7 318.5Q110.2 318.9 111.5 319.4Q112.8 320.0 113.7 320.8Q114.6 321.6 115.2 322.8Q115.7 323.9 115.7 325.4L115.7 325.4Q115.7 327.5 114.6 329.1Q113.5 330.6 111.5 331.5Q109.5 332.3 106.6 332.3L106.6 332.3Q103.8 332.3 101.7 331.5Q99.7 330.6 98.5 328.9Q97.3 327.2 97.3 324.7L97.3 324.7L102.0 324.7Q102.1 325.9 102.7 326.6Q103.3 327.4 104.3 327.8Q105.3 328.2 106.6 328.2L106.6 328.2Q107.8 328.2 108.8 327.8Q109.7 327.5 110.2 326.8Q110.7 326.2 110.7 325.3L110.7 325.3Q110.7 324.6 110.3 324.0Q109.8 323.5 108.9 323.1Q108.0 322.7 106.8 322.4L106.8 322.4L104.2 321.8Q101.3 321.1 99.6 319.6Q97.9 318.0 97.9 315.5L97.9 315.5Q97.9 313.3 99.0 311.8Q100.2 310.2 102.2 309.3Q104.2 308.4 106.7 308.4L106.7 308.4Q109.3 308.4 111.2 309.3Q113.2 310.2 114.3 311.8Q115.3 313.3 115.4 315.4L115.4 315.4ZM126.8 332.3L126.8 332.3Q124.1 332.3 122.2 331.2Q120.2 330.1 119.2 328.0Q118.2 326.0 118.2 323.3L118.2 323.3Q118.2 320.7 119.2 318.6Q120.3 316.6 122.2 315.5Q124.1 314.3 126.8 314.3L126.8 314.3Q129.0 314.3 130.8 315.1Q132.5 316.0 133.5 317.5Q134.5 319.0 134.6 321L134.6 321L130 321Q129.8 319.7 129.0 318.9Q128.2 318.1 126.8 318.1L126.8 318.1Q125.7 318.1 124.9 318.7Q124.0 319.3 123.6 320.5Q123.1 321.6 123.1 323.3L123.1 323.3Q123.1 324.9 123.6 326.1Q124.0 327.3 124.9 327.9Q125.7 328.5 126.8 328.5L126.8 328.5Q127.7 328.5 128.3 328.2Q129.0 327.8 129.4 327.2Q129.9 326.5 130 325.6L130 325.6L134.6 325.6Q134.5 327.6 133.5 329.1Q132.5 330.6 130.8 331.5Q129.1 332.3 126.8 332.3ZM142.5 332L137.7 332L137.7 314.5L142.4 314.5L142.4 317.6L142.6 317.6Q143.0 316.0 144.2 315.1Q145.3 314.3 146.8 314.3L146.8 314.3Q147.1 314.3 147.5 314.3Q148.0 314.4 148.3 314.5L148.3 314.5L148.3 318.8Q147.9 318.7 147.3 318.6Q146.7 318.5 146.2 318.5L146.2 318.5Q145.2 318.5 144.3 319.0Q143.5 319.4 143.0 320.2Q142.5 321.1 142.5 322.1L142.5 322.1L142.5 332ZM155.6 332L150.8 332L150.8 314.5L155.6 314.5L155.6 332ZM153.2 312.3L153.2 312.3Q152.1 312.3 151.3 311.6Q150.6 310.9 150.6 309.8L150.6 309.8Q150.6 308.8 151.3 308.1Q152.1 307.4 153.2 307.4L153.2 307.4Q154.3 307.4 155.0 308.1Q155.8 308.8 155.8 309.8L155.8 309.8Q155.8 310.9 155.0 311.6Q154.3 312.3 153.2 312.3ZM164.3 338.5L159.5 338.5L159.5 314.5L164.2 314.5L164.2 317.5L164.5 317.5Q164.8 316.8 165.4 316.0Q166.0 315.3 167.0 314.8Q168.0 314.3 169.4 314.3L169.4 314.3Q171.3 314.3 172.9 315.3Q174.6 316.3 175.5 318.3Q176.5 320.3 176.5 323.3L176.5 323.3Q176.5 326.2 175.6 328.2Q174.6 330.2 173.0 331.3Q171.4 332.3 169.4 332.3L169.4 332.3Q168.0 332.3 167.0 331.8Q166.0 331.4 165.4 330.6Q164.8 329.9 164.5 329.2L164.5 329.2L164.3 329.2L164.3 338.5ZM164.2 323.3L164.2 323.3Q164.2 324.8 164.6 326.0Q165.1 327.1 165.9 327.8Q166.7 328.4 167.9 328.4L167.9 328.4Q169.1 328.4 169.9 327.8Q170.7 327.1 171.1 326.0Q171.5 324.8 171.5 323.3L171.5 323.3Q171.5 321.8 171.1 320.6Q170.7 319.5 169.9 318.8Q169.1 318.2 167.9 318.2L167.9 318.2Q166.7 318.2 165.9 318.8Q165.1 319.4 164.6 320.6Q164.2 321.7 164.2 323.3ZM178.5 314.5L189.0 314.5L189.0 318.2L178.5 318.2L178.5 314.5ZM180.9 327.3L180.9 310.4L185.7 310.4L185.7 326.6Q185.7 327.3 185.9 327.7Q186.1 328.0 186.5 328.2Q186.9 328.3 187.3 328.3L187.3 328.3Q187.7 328.3 188.0 328.3Q188.4 328.2 188.5 328.2L188.5 328.2L189.3 331.8Q188.9 331.9 188.3 332.1Q187.6 332.2 186.7 332.2L186.7 332.2Q184.9 332.3 183.6 331.8Q182.3 331.2 181.6 330.1Q180.9 329.0 180.9 327.3L180.9 327.3Z M215.3 308.7L220.2 308.7L220.2 332L216.0 332L205.9 317.4L205.7 317.4L205.7 332L200.8 332L200.8 308.7L205.1 308.7L215.1 323.4L215.3 323.4L215.3 308.7ZM229.2 332.3L229.2 332.3Q227.5 332.3 226.2 331.7Q224.9 331.2 224.1 330.0Q223.4 328.9 223.4 327.1L223.4 327.1Q223.4 325.7 223.9 324.7Q224.5 323.7 225.4 323.1Q226.3 322.5 227.5 322.2Q228.6 321.9 229.9 321.8L229.9 321.8Q231.5 321.6 232.4 321.4Q233.3 321.3 233.8 321.0Q234.2 320.7 234.2 320.2L234.2 320.2L234.2 320.1Q234.2 319.0 233.5 318.4Q232.8 317.9 231.6 317.9L231.6 317.9Q230.3 317.9 229.5 318.4Q228.7 319 228.5 319.9L228.5 319.9L224 319.5Q224.3 317.9 225.3 316.7Q226.3 315.6 227.9 314.9Q229.5 314.3 231.6 314.3L231.6 314.3Q233.1 314.3 234.4 314.7Q235.7 315 236.8 315.7Q237.8 316.4 238.4 317.6Q239.0 318.7 239.0 320.2L239.0 320.2L239.0 332L234.4 332L234.4 329.6L234.3 329.6Q233.9 330.4 233.2 331.0Q232.5 331.6 231.5 332.0Q230.5 332.3 229.2 332.3ZM230.6 329.0L230.6 329.0Q231.6 329.0 232.5 328.6Q233.3 328.1 233.7 327.4Q234.2 326.7 234.2 325.8L234.2 325.8L234.2 323.9Q234.0 324.1 233.6 324.2Q233.2 324.3 232.7 324.4Q232.2 324.5 231.7 324.6Q231.2 324.6 230.8 324.7L230.8 324.7Q230.0 324.8 229.4 325.1Q228.7 325.4 228.4 325.8Q228.0 326.3 228.0 327.0L228.0 327.0Q228.0 328.0 228.7 328.5Q229.5 329.0 230.6 329.0ZM247.6 332L242.8 332L242.8 314.5L247.4 314.5L247.4 317.6L247.6 317.6Q248.1 316.1 249.4 315.2Q250.7 314.3 252.5 314.3L252.5 314.3Q254.3 314.3 255.5 315.2Q256.8 316.1 257.2 317.6L257.2 317.6L257.4 317.6Q257.9 316.1 259.3 315.2Q260.7 314.3 262.6 314.3L262.6 314.3Q265.1 314.3 266.6 315.9Q268.1 317.4 268.1 320.3L268.1 320.3L268.1 332L263.3 332L263.3 321.2Q263.3 319.8 262.5 319.0Q261.8 318.3 260.6 318.3L260.6 318.3Q259.3 318.3 258.5 319.1Q257.8 320.0 257.8 321.3L257.8 321.3L257.8 332L253.1 332L253.1 321.1Q253.1 319.8 252.4 319.1Q251.6 318.3 250.5 318.3L250.5 318.3Q249.6 318.3 249.0 318.7Q248.4 319.1 248.0 319.8Q247.6 320.6 247.6 321.5L247.6 321.5L247.6 332ZM276.8 332L272.0 332L272.0 314.5L276.8 314.5L276.8 332ZM274.4 312.3L274.4 312.3Q273.3 312.3 272.5 311.6Q271.8 310.9 271.8 309.8L271.8 309.8Q271.8 308.8 272.5 308.1Q273.3 307.4 274.4 307.4L274.4 307.4Q275.5 307.4 276.2 308.1Q277 308.8 277 309.8L277 309.8Q277 310.9 276.2 311.6Q275.5 312.3 274.4 312.3ZM285.5 321.9L285.5 321.9L285.5 332L280.7 332L280.7 314.5L285.3 314.5L285.3 317.6L285.5 317.6Q286.1 316.1 287.4 315.2Q288.8 314.3 290.7 314.3L290.7 314.3Q292.5 314.3 293.9 315.1Q295.2 315.9 296.0 317.4Q296.7 318.9 296.7 320.9L296.7 320.9L296.7 332L291.9 332L291.9 321.8Q291.9 320.1 291.1 319.2Q290.3 318.3 288.8 318.3L288.8 318.3Q287.8 318.3 287.1 318.8Q286.3 319.2 285.9 320.0Q285.5 320.8 285.5 321.9ZM308.4 338.9L308.4 338.9Q306.1 338.9 304.4 338.3Q302.7 337.6 301.7 336.5Q300.7 335.4 300.4 334.0L300.4 334.0L304.9 333.4Q305.1 334.0 305.6 334.4Q306.0 334.9 306.7 335.2Q307.5 335.4 308.5 335.4L308.5 335.4Q310.1 335.4 311.1 334.7Q312.2 333.9 312.2 332.1L312.2 332.1L312.2 328.9L312.0 328.9Q311.6 329.6 311.0 330.3Q310.4 330.9 309.4 331.3Q308.4 331.8 307.0 331.8L307.0 331.8Q305.0 331.8 303.4 330.8Q301.8 329.9 300.9 328.0Q299.9 326.1 299.9 323.2L299.9 323.2Q299.9 320.3 300.9 318.3Q301.8 316.3 303.4 315.3Q305.1 314.3 307.0 314.3L307.0 314.3Q308.4 314.3 309.4 314.8Q310.4 315.3 311.0 316.0Q311.6 316.8 312.0 317.5L312.0 317.5L312.1 317.5L312.1 314.5L317.0 314.5L317.0 332.2Q317.0 334.4 315.9 335.9Q314.8 337.4 312.8 338.2Q310.9 338.9 308.4 338.9ZM308.5 328.1L308.5 328.1Q309.7 328.1 310.5 327.5Q311.3 326.9 311.8 325.8Q312.2 324.8 312.2 323.2L312.2 323.2Q312.2 321.7 311.8 320.6Q311.3 319.4 310.5 318.8Q309.7 318.2 308.5 318.2L308.5 318.2Q307.3 318.2 306.5 318.8Q305.7 319.5 305.3 320.6Q304.9 321.7 304.9 323.2L304.9 323.2Q304.9 324.7 305.3 325.8Q305.7 326.9 306.5 327.5Q307.3 328.1 308.5 328.1Z M348.9 316.9L348.9 316.9L343.9 316.9Q343.8 315.9 343.3 315.2Q342.9 314.4 342.3 313.9Q341.6 313.3 340.7 313.0Q339.9 312.8 338.9 312.8L338.9 312.8Q337.1 312.8 335.7 313.7Q334.4 314.5 333.6 316.2Q332.9 317.9 332.9 320.4L332.9 320.4Q332.9 322.9 333.7 324.5Q334.4 326.2 335.7 327.1Q337.1 328.0 338.8 328.0L338.8 328.0Q339.8 328.0 340.7 327.7Q341.5 327.4 342.2 326.9Q342.8 326.4 343.3 325.7Q343.7 325.0 343.9 324.0L343.9 324.0L348.9 324.1Q348.7 325.7 347.9 327.2Q347.1 328.6 345.8 329.8Q344.6 331.0 342.8 331.6Q341 332.3 338.8 332.3L338.8 332.3Q335.6 332.3 333.2 330.9Q330.8 329.5 329.3 326.8Q327.9 324.2 327.9 320.4L327.9 320.4Q327.9 316.6 329.4 313.9Q330.8 311.2 333.2 309.8Q335.7 308.4 338.8 308.4L338.8 308.4Q340.8 308.4 342.5 309.0Q344.3 309.5 345.6 310.6Q346.9 311.7 347.8 313.3Q348.6 314.9 348.9 316.9ZM360.2 332.3L360.2 332.3Q357.5 332.3 355.6 331.2Q353.7 330.1 352.6 328.1Q351.6 326.0 351.6 323.3L351.6 323.3Q351.6 320.6 352.6 318.6Q353.7 316.6 355.6 315.4Q357.5 314.3 360.2 314.3L360.2 314.3Q362.8 314.3 364.8 315.4Q366.7 316.6 367.7 318.6Q368.8 320.6 368.8 323.3L368.8 323.3Q368.8 326.0 367.7 328.1Q366.7 330.1 364.8 331.2Q362.8 332.3 360.2 332.3ZM360.2 328.6L360.2 328.6Q361.4 328.6 362.2 327.9Q363.0 327.2 363.4 326.0Q363.9 324.8 363.9 323.3L363.9 323.3Q363.9 321.8 363.4 320.6Q363.0 319.4 362.2 318.7Q361.4 318.0 360.2 318.0L360.2 318.0Q359 318.0 358.2 318.7Q357.4 319.4 356.9 320.6Q356.5 321.8 356.5 323.3L356.5 323.3Q356.5 324.8 356.9 326.0Q357.4 327.2 358.2 327.9Q359 328.6 360.2 328.6ZM376.8 321.9L376.8 321.9L376.8 332L371.9 332L371.9 314.5L376.6 314.5L376.6 317.6L376.8 317.6Q377.3 316.1 378.7 315.2Q380.1 314.3 382.0 314.3L382.0 314.3Q383.8 314.3 385.2 315.1Q386.5 315.9 387.3 317.4Q388.0 318.9 388.0 320.9L388.0 320.9L388.0 332L383.2 332L383.2 321.8Q383.2 320.1 382.4 319.2Q381.5 318.3 380.1 318.3L380.1 318.3Q379.1 318.3 378.4 318.8Q377.6 319.2 377.2 320.0Q376.8 320.8 376.8 321.9ZM402.4 314.5L407.5 314.5L401.4 332L395.9 332L389.8 314.5L394.9 314.5L398.6 327.0L398.7 327.0L402.4 314.5ZM417.3 332.3L417.3 332.3Q414.6 332.3 412.7 331.2Q410.8 330.1 409.7 328.1Q408.7 326.1 408.7 323.4L408.7 323.4Q408.7 320.7 409.7 318.6Q410.8 316.6 412.7 315.5Q414.6 314.3 417.1 314.3L417.1 314.3Q418.9 314.3 420.4 314.9Q421.9 315.4 423.0 316.5Q424.1 317.6 424.7 319.3Q425.3 321.0 425.3 323.2L425.3 323.2L425.3 324.5L410.6 324.5L410.6 321.5L420.8 321.5Q420.8 320.5 420.3 319.7Q419.9 318.9 419.1 318.4Q418.3 317.9 417.2 317.9L417.2 317.9Q416.1 317.9 415.3 318.4Q414.4 318.9 413.9 319.8Q413.5 320.6 413.5 321.7L413.5 321.7L413.5 324.5Q413.5 325.8 413.9 326.8Q414.4 327.7 415.3 328.2Q416.2 328.7 417.4 328.7L417.4 328.7Q418.2 328.7 418.9 328.5Q419.6 328.3 420.0 327.8Q420.5 327.4 420.8 326.7L420.8 326.7L425.2 327Q424.9 328.6 423.8 329.8Q422.8 331.0 421.1 331.7Q419.5 332.3 417.3 332.3ZM433.3 321.9L433.3 321.9L433.3 332L428.5 332L428.5 314.5L433.1 314.5L433.1 317.6L433.3 317.6Q433.9 316.1 435.3 315.2Q436.6 314.3 438.6 314.3L438.6 314.3Q440.4 314.3 441.7 315.1Q443.1 315.9 443.8 317.4Q444.6 318.9 444.6 320.9L444.6 320.9L444.6 332L439.8 332L439.8 321.8Q439.8 320.1 438.9 319.2Q438.1 318.3 436.6 318.3L436.6 318.3Q435.7 318.3 434.9 318.8Q434.2 319.2 433.8 320.0Q433.4 320.8 433.3 321.9ZM447.2 314.5L457.7 314.5L457.7 318.2L447.2 318.2L447.2 314.5ZM449.6 327.3L449.6 310.4L454.4 310.4L454.4 326.6Q454.4 327.3 454.6 327.7Q454.8 328.0 455.2 328.2Q455.5 328.3 456.0 328.3L456.0 328.3Q456.4 328.3 456.7 328.3Q457.1 328.2 457.2 328.2L457.2 328.2L458 331.8Q457.6 331.9 457.0 332.1Q456.3 332.2 455.4 332.2L455.4 332.2Q453.6 332.3 452.3 331.8Q451 331.2 450.3 330.1Q449.5 329.0 449.6 327.3L449.6 327.3ZM465.7 332L460.8 332L460.8 314.5L465.7 314.5L465.7 332ZM463.3 312.3L463.3 312.3Q462.2 312.3 461.4 311.6Q460.6 310.9 460.6 309.8L460.6 309.8Q460.6 308.8 461.4 308.1Q462.2 307.4 463.3 307.4L463.3 307.4Q464.3 307.4 465.1 308.1Q465.9 308.8 465.9 309.8L465.9 309.8Q465.9 310.9 465.1 311.6Q464.3 312.3 463.3 312.3ZM477.4 332.3L477.4 332.3Q474.8 332.3 472.8 331.2Q470.9 330.1 469.9 328.1Q468.8 326.0 468.8 323.3L468.8 323.3Q468.8 320.6 469.9 318.6Q470.9 316.6 472.8 315.4Q474.8 314.3 477.4 314.3L477.4 314.3Q480.1 314.3 482.0 315.4Q483.9 316.6 485.0 318.6Q486.0 320.6 486.0 323.3L486.0 323.3Q486.0 326.0 485.0 328.1Q483.9 330.1 482.0 331.2Q480.1 332.3 477.4 332.3ZM477.4 328.6L477.4 328.6Q478.6 328.6 479.5 327.9Q480.3 327.2 480.7 326.0Q481.1 324.8 481.1 323.3L481.1 323.3Q481.1 321.8 480.7 320.6Q480.3 319.4 479.5 318.7Q478.6 318.0 477.4 318.0L477.4 318.0Q476.2 318.0 475.4 318.7Q474.6 319.4 474.2 320.6Q473.7 321.8 473.7 323.3L473.7 323.3Q473.7 324.8 474.2 326.0Q474.6 327.2 475.4 327.9Q476.2 328.6 477.4 328.6ZM494.0 321.9L494.0 321.9L494.0 332L489.2 332L489.2 314.5L493.8 314.5L493.8 317.6L494.0 317.6Q494.6 316.1 495.9 315.2Q497.3 314.3 499.2 314.3L499.2 314.3Q501.1 314.3 502.4 315.1Q503.8 315.9 504.5 317.4Q505.3 318.9 505.3 320.9L505.3 320.9L505.3 332L500.4 332L500.4 321.8Q500.4 320.1 499.6 319.2Q498.8 318.3 497.3 318.3L497.3 318.3Q496.3 318.3 495.6 318.8Q494.9 319.2 494.4 320.0Q494.0 320.8 494.0 321.9ZM523.6 319.5L523.6 319.5L519.2 319.8Q519.0 319.2 518.7 318.8Q518.3 318.3 517.7 318.0Q517.1 317.8 516.2 317.8L516.2 317.8Q515.1 317.8 514.3 318.2Q513.6 318.7 513.6 319.5L513.6 319.5Q513.6 320.1 514.1 320.5Q514.6 321.0 515.8 321.2L515.8 321.2L518.9 321.9Q521.5 322.4 522.7 323.5Q524.0 324.7 524.0 326.6L524.0 326.6Q524.0 328.3 523.0 329.6Q522.0 330.9 520.2 331.6Q518.5 332.3 516.2 332.3L516.2 332.3Q512.7 332.3 510.7 330.9Q508.6 329.4 508.3 326.9L508.3 326.9L513.1 326.7Q513.3 327.8 514.1 328.3Q514.9 328.9 516.2 328.9L516.2 328.9Q517.5 328.9 518.3 328.4Q519.1 327.9 519.1 327.1L519.1 327.1Q519.1 326.4 518.5 326.0Q518.0 325.6 516.8 325.3L516.8 325.3L513.8 324.7Q511.2 324.2 510.0 323.0Q508.8 321.7 508.8 319.8L508.8 319.8Q508.8 318.1 509.7 316.9Q510.6 315.6 512.3 315.0Q513.9 314.3 516.2 314.3L516.2 314.3Q519.5 314.3 521.4 315.7Q523.3 317.1 523.6 319.5Z M550.3 308.7L555.2 308.7L555.2 332L551.0 332L540.9 317.4L540.7 317.4L540.7 332L535.8 332L535.8 308.7L540.1 308.7L550.1 323.4L550.3 323.4L550.3 308.7ZM567.1 332.3L567.1 332.3Q564.4 332.3 562.5 331.2Q560.6 330.1 559.5 328.1Q558.5 326.0 558.5 323.3L558.5 323.3Q558.5 320.6 559.5 318.6Q560.6 316.6 562.5 315.4Q564.4 314.3 567.1 314.3L567.1 314.3Q569.7 314.3 571.7 315.4Q573.6 316.6 574.6 318.6Q575.7 320.6 575.7 323.3L575.7 323.3Q575.7 326.0 574.6 328.1Q573.6 330.1 571.7 331.2Q569.7 332.3 567.1 332.3ZM567.1 328.6L567.1 328.6Q568.3 328.6 569.1 327.9Q569.9 327.2 570.3 326.0Q570.8 324.8 570.8 323.3L570.8 323.3Q570.8 321.8 570.3 320.6Q569.9 319.4 569.1 318.7Q568.3 318.0 567.1 318.0L567.1 318.0Q565.9 318.0 565.1 318.7Q564.3 319.4 563.8 320.6Q563.4 321.8 563.4 323.3L563.4 323.3Q563.4 324.8 563.8 326.0Q564.3 327.2 565.1 327.9Q565.9 328.6 567.1 328.6Z M607.7 320.4L607.7 320.4Q607.7 324.2 606.3 326.8Q604.9 329.5 602.4 330.9Q599.9 332.3 596.8 332.3L596.8 332.3Q593.7 332.3 591.3 330.9Q588.8 329.5 587.4 326.8Q585.9 324.2 585.9 320.4L585.9 320.4Q585.9 316.6 587.4 313.9Q588.8 311.2 591.3 309.8Q593.7 308.4 596.8 308.4L596.8 308.4Q599.9 308.4 602.4 309.8Q604.9 311.2 606.3 313.9Q607.7 316.6 607.7 320.4ZM602.8 320.4L602.8 320.4Q602.8 317.9 602.0 316.2Q601.3 314.5 600.0 313.6Q598.6 312.8 596.8 312.8L596.8 312.8Q595.1 312.8 593.7 313.6Q592.4 314.5 591.7 316.2Q590.9 317.9 590.9 320.4L590.9 320.4Q590.9 322.8 591.7 324.5Q592.4 326.2 593.7 327.1Q595.1 328.0 596.8 328.0L596.8 328.0Q598.6 328.0 600.0 327.1Q601.3 326.2 602.0 324.5Q602.8 322.8 602.8 320.4ZM616.1 321.9L616.1 321.9L616.1 332L611.3 332L611.3 314.5L615.9 314.5L615.9 317.6L616.1 317.6Q616.7 316.1 618.0 315.2Q619.4 314.3 621.4 314.3L621.4 314.3Q623.2 314.3 624.5 315.1Q625.9 315.9 626.6 317.4Q627.4 318.9 627.4 320.9L627.4 320.9L627.4 332L622.5 332L622.5 321.8Q622.5 320.1 621.7 319.2Q620.9 318.3 619.4 318.3L619.4 318.3Q618.5 318.3 617.7 318.8Q617.0 319.2 616.6 320.0Q616.1 320.8 616.1 321.9ZM639.1 332.3L639.1 332.3Q636.4 332.3 634.5 331.2Q632.6 330.1 631.5 328.1Q630.5 326.1 630.5 323.4L630.5 323.4Q630.5 320.7 631.5 318.6Q632.6 316.6 634.5 315.5Q636.4 314.3 638.9 314.3L638.9 314.3Q640.7 314.3 642.2 314.9Q643.7 315.4 644.8 316.5Q645.9 317.6 646.5 319.3Q647.1 321.0 647.1 323.2L647.1 323.2L647.1 324.5L632.4 324.5L632.4 321.5L642.6 321.5Q642.6 320.5 642.1 319.7Q641.7 318.9 640.9 318.4Q640.1 317.9 639.0 317.9L639.0 317.9Q637.9 317.9 637.1 318.4Q636.2 318.9 635.8 319.8Q635.3 320.6 635.3 321.7L635.3 321.7L635.3 324.5Q635.3 325.8 635.7 326.8Q636.2 327.7 637.1 328.2Q638 328.7 639.2 328.7L639.2 328.7Q640.0 328.7 640.7 328.5Q641.4 328.3 641.8 327.8Q642.3 327.4 642.6 326.7L642.6 326.7L647.0 327Q646.7 328.6 645.7 329.8Q644.6 331.0 642.9 331.7Q641.3 332.3 639.1 332.3Z M662.7 332L657.8 332L657.8 308.7L673.2 308.7L673.2 312.8L662.7 312.8L662.7 318.3L672.2 318.3L672.2 322.4L662.7 322.4L662.7 332ZM683.1 332.3L683.1 332.3Q680.4 332.3 678.5 331.2Q676.6 330.1 675.5 328.1Q674.5 326.0 674.5 323.3L674.5 323.3Q674.5 320.6 675.5 318.6Q676.6 316.6 678.5 315.4Q680.4 314.3 683.1 314.3L683.1 314.3Q685.7 314.3 687.6 315.4Q689.6 316.6 690.6 318.6Q691.6 320.6 691.6 323.3L691.6 323.3Q691.6 326.0 690.6 328.1Q689.6 330.1 687.6 331.2Q685.7 332.3 683.1 332.3ZM683.1 328.6L683.1 328.6Q684.3 328.6 685.1 327.9Q685.9 327.2 686.3 326.0Q686.7 324.8 686.7 323.3L686.7 323.3Q686.7 321.8 686.3 320.6Q685.9 319.4 685.1 318.7Q684.3 318.0 683.1 318.0L683.1 318.0Q681.9 318.0 681.0 318.7Q680.2 319.4 679.8 320.6Q679.4 321.8 679.4 323.3L679.4 323.3Q679.4 324.8 679.8 326.0Q680.2 327.2 681.0 327.9Q681.9 328.6 683.1 328.6ZM694.8 308.7L699.6 308.7L699.6 332L694.8 332L694.8 308.7ZM703.5 308.7L708.4 308.7L708.4 332L703.5 332L703.5 308.7ZM720.1 332.3L720.1 332.3Q717.5 332.3 715.5 331.2Q713.6 330.1 712.6 328.1Q711.5 326.0 711.5 323.3L711.5 323.3Q711.5 320.6 712.6 318.6Q713.6 316.6 715.5 315.4Q717.5 314.3 720.1 314.3L720.1 314.3Q722.8 314.3 724.7 315.4Q726.6 316.6 727.6 318.6Q728.7 320.6 728.7 323.3L728.7 323.3Q728.7 326.0 727.6 328.1Q726.6 330.1 724.7 331.2Q722.8 332.3 720.1 332.3ZM720.1 328.6L720.1 328.6Q721.3 328.6 722.1 327.9Q722.9 327.2 723.4 326.0Q723.8 324.8 723.8 323.3L723.8 323.3Q723.8 321.8 723.4 320.6Q722.9 319.4 722.1 318.7Q721.3 318.0 720.1 318.0L720.1 318.0Q718.9 318.0 718.1 318.7Q717.3 319.4 716.8 320.6Q716.4 321.8 716.4 323.3L716.4 323.3Q716.4 324.8 716.8 326.0Q717.3 327.2 718.1 327.9Q718.9 328.6 720.1 328.6ZM740.0 332L734.9 332L730.1 314.5L735.0 314.5L737.7 326.3L737.9 326.3L740.7 314.5L745.5 314.5L748.4 326.2L748.5 326.2L751.2 314.5L756.1 314.5L751.3 332L746.2 332L743.2 321.0L743.0 321.0L740.0 332ZM773.1 319.5L773.1 319.5L768.7 319.8Q768.6 319.2 768.2 318.8Q767.9 318.3 767.2 318.0Q766.6 317.8 765.8 317.8L765.8 317.8Q764.7 317.8 763.9 318.2Q763.1 318.7 763.1 319.5L763.1 319.5Q763.1 320.1 763.6 320.5Q764.1 321.0 765.3 321.2L765.3 321.2L768.5 321.9Q771.0 322.4 772.3 323.5Q773.5 324.7 773.5 326.6L773.5 326.6Q773.5 328.3 772.5 329.6Q771.5 330.9 769.8 331.6Q768.0 332.3 765.8 332.3L765.8 332.3Q762.3 332.3 760.3 330.9Q758.2 329.4 757.9 326.9L757.9 326.9L762.6 326.7Q762.8 327.8 763.7 328.3Q764.5 328.9 765.8 328.9L765.8 328.9Q767.1 328.9 767.8 328.4Q768.6 327.9 768.6 327.1L768.6 327.1Q768.6 326.4 768.1 326.0Q767.5 325.6 766.4 325.3L766.4 325.3L763.4 324.7Q760.8 324.2 759.6 323.0Q758.3 321.7 758.3 319.8L758.3 319.8Q758.3 318.1 759.2 316.9Q760.1 315.6 761.8 315.0Q763.5 314.3 765.7 314.3L765.7 314.3Q769.0 314.3 770.9 315.7Q772.8 317.1 773.1 319.5Z "/></g></svg>