<svg width="800" height="400" viewBox="0 0 800 400" xmlns="http://www.w3.org/2000/svg"><mask id="satori_om-id"><rect x="0" y="0" width="800" height="400" fill="#fff"/></mask><rect x="0" y="0" width="800" height="400" fill="#fff"/><clipPath id="satori_cp-id-0"><rect x="300" y="61" width="200" height="200"/></clipPath><mask id="satori_om-id-0"><rect x="300" y="61" width="200" height="200" fill="#fff"/></mask><image x="300" y="61" width="200" height="200" href="data:image/svg+xml;utf8,%3Csvg  xmlns=%22http://www.w3.org/2000/svg%22 preserveAspectRatio=%22xMinYMin meet%22 width=%22NaN%22 height=%22NaN%22 viewBox=%220 0 256 256%22%3E%3Cpath d=%22M0 0h256v256H0V0z%22 fill=%22%23F7DF1E%22%3E%3C/path%3E%3Cpath d=%22M67.312 213.932l19.59-11.856c3.78 6.701 7.218 12.371 15.465 12.371 7.905 0 12.89-3.092 12.89-15.12v-81.798h24.057v82.138c0 24.917-14.606 36.259-35.916 36.259-19.245 0-30.416-9.967-36.087-21.996M152.381 211.354l19.588-11.341c5.157 8.421 11.859 14.607 23.715 14.607 9.969 0 16.325-4.984 16.325-11.858 0-8.248-6.53-11.17-17.528-15.98l-6.013-2.58c-17.357-7.387-28.87-16.667-28.87-36.257 0-18.044 13.747-31.792 35.228-31.792 15.294 0 26.292 5.328 34.196 19.247L210.29 147.43c-4.125-7.389-8.591-10.31-15.465-10.31-7.046 0-11.514 4.468-11.514 10.31 0 7.217 4.468 10.14 14.778 14.608l6.014 2.577c20.45 8.765 31.963 17.7 31.963 37.804 0 21.654-17.012 33.51-39.867 33.51-22.339 0-36.774-10.654-43.819-24.574%22%3E%3C/path%3E%3C/svg%3E" preserveAspectRatio="none" clip-path="url(#satori_cp-id-0)" mask="url(#satori_om-id-0)"/><mask id="satori_om-id-0-0"><rect x="300" y="61" width="0" height="200" fill="#fff"/></mask><mask id="satori_om-id-0-1"><rect x="300" y="61" width="0" height="200" fill="#fff"/></mask><mask id="satori_om-id-1"><rect x="141" y="301" width="518" height="39" fill="#fff"/></mask><g  ><path fill="black" d="M147.9 332L143.0 332L143.0 308.7L147.9 308.7L147.9 318.3L157.9 318.3L157.9 308.7L162.8 308.7L162.8 332L157.9 332L157.9 322.4L147.9 322.4L147.9 332ZM174.7 332.3L174.7 332.3Q172.0 332.3 170.1 331.2Q168.2 330.1 167.1 328.1Q166.1 326.0 166.1 323.3L166.1 323.3Q166.1 320.6 167.1 318.6Q168.2 316.6 170.1 315.4Q172.0 314.3 174.7 314.3L174.7 314.3Q177.3 314.3 179.3 315.4Q181.2 316.6 182.2 318.6Q183.3 320.6 183.3 323.3L183.3 323.3Q183.3 326.0 182.2 328.1Q181.2 330.1 179.3 331.2Q177.3 332.3 174.7 332.3ZM174.7 328.6L174.7 328.6Q175.9 328.6 176.7 327.9Q177.5 327.2 177.9 326.0Q178.4 324.8 178.4 323.3L178.4 323.3Q178.4 321.8 177.9 320.6Q177.5 319.4 176.7 318.7Q175.9 318.0 174.7 318.0L174.7 318.0Q173.5 318.0 172.7 318.7Q171.9 319.4 171.4 320.6Q171.0 321.8 171.0 323.3L171.0 323.3Q171.0 324.8 171.4 326.0Q171.9 327.2 172.7 327.9Q173.5 328.6 174.7 328.6ZM194.6 332L189.5 332L184.7 314.5L189.6 314.5L192.3 326.3L192.5 326.3L195.3 314.5L200.1 314.5L203.0 326.2L203.1 326.2L205.8 314.5L210.6 314.5L205.9 332L200.8 332L197.8 321.0L197.6 321.0L194.6 332Z M219.8 314.5L230.4 314.5L230.4 318.2L219.8 318.2L219.8 314.5ZM222.2 327.3L222.2 310.4L227.1 310.4L227.1 326.6Q227.1 327.3 227.3 327.7Q227.5 328.0 227.8 328.2Q228.2 328.3 228.7 328.3L228.7 328.3Q229.0 328.3 229.4 328.3Q229.7 328.2 229.9 328.2L229.9 328.2L230.7 331.8Q230.3 331.9 229.6 332.1Q229.0 332.2 228.0 332.2L228.0 332.2Q226.3 332.3 225.0 331.8Q223.7 331.2 222.9 330.1Q222.2 329.0 222.2 327.3L222.2 327.3ZM241.2 332.3L241.2 332.3Q238.6 332.3 236.6 331.2Q234.7 330.1 233.7 328.1Q232.6 326.0 232.6 323.3L232.6 323.3Q232.6 320.6 233.7 318.6Q234.7 316.6 236.6 315.4Q238.6 314.3 241.2 314.3L241.2 314.3Q243.9 314.3 245.8 315.4Q247.7 316.6 248.8 318.6Q249.8 320.6 249.8 323.3L249.8 323.3Q249.8 326.0 248.8 328.1Q247.7 330.1 245.8 331.2Q243.9 332.3 241.2 332.3ZM241.2 328.6L241.2 328.6Q242.4 328.6 243.2 327.9Q244.0 327.2 244.5 326.0Q244.9 324.8 244.9 323.3L244.9 323.3Q244.9 321.8 244.5 320.6Q244.0 319.4 243.2 318.7Q242.4 318.0 241.2 318.0L241.2 318.0Q240.0 318.0 239.2 318.7Q238.4 319.4 237.9 320.6Q237.5 321.8 237.5 323.3L237.5 323.3Q237.5 324.8 237.9 326.0Q238.4 327.2 239.2 327.9Q240.0 328.6 241.2 328.6Z M265.4 321.9L265.4 321.9L265.4 332L260.6 332L260.6 314.5L265.2 314.5L265.2 317.6L265.4 317.6Q266.0 316.1 267.3 315.2Q268.7 314.3 270.6 314.3L270.6 314.3Q272.4 314.3 273.8 315.1Q275.1 315.9 275.9 317.4Q276.6 318.9 276.6 320.9L276.6 320.9L276.6 332L271.8 332L271.8 321.8Q271.8 320.1 271.0 319.2Q270.2 318.3 268.7 318.3L268.7 318.3Q267.7 318.3 267.0 318.8Q266.2 319.2 265.8 320.0Q265.4 320.8 265.4 321.9ZM285.4 332.3L285.4 332.3Q283.8 332.3 282.5 331.7Q281.1 331.2 280.4 330.0Q279.6 328.9 279.6 327.1L279.6 327.1Q279.6 325.7 280.2 324.7Q280.7 323.7 281.6 323.1Q282.5 322.5 283.7 322.2Q284.9 321.9 286.2 321.8L286.2 321.8Q287.7 321.6 288.6 321.4Q289.6 321.3 290 321.0Q290.4 320.7 290.4 320.2L290.4 320.2L290.4 320.1Q290.4 319.0 289.7 318.4Q289.1 317.9 287.8 317.9L287.8 317.9Q286.5 317.9 285.8 318.4Q285.0 319 284.7 319.9L284.7 319.9L280.3 319.5Q280.6 317.9 281.6 316.7Q282.6 315.6 284.2 314.9Q285.8 314.3 287.9 314.3L287.9 314.3Q289.3 314.3 290.6 314.7Q292.0 315 293.0 315.7Q294.1 316.4 294.7 317.6Q295.3 318.7 295.3 320.2L295.3 320.2L295.3 332L290.7 332L290.7 329.6L290.5 329.6Q290.1 330.4 289.4 331.0Q288.7 331.6 287.7 332.0Q286.7 332.3 285.4 332.3ZM286.8 329.0L286.8 329.0Q287.9 329.0 288.7 328.6Q289.5 328.1 290.0 327.4Q290.5 326.7 290.5 325.8L290.5 325.8L290.5 323.9Q290.2 324.1 289.8 324.2Q289.4 324.3 289.0 324.4Q288.5 324.5 288.0 324.6Q287.5 324.6 287.1 324.7L287.1 324.7Q286.2 324.8 285.6 325.1Q285.0 325.4 284.6 325.8Q284.3 326.3 284.3 327.0L284.3 327.0Q284.3 328.0 285.0 328.5Q285.7 329.0 286.8 329.0ZM303.9 332L299.0 332L299.0 314.5L303.6 314.5L303.6 317.6L303.8 317.6Q304.4 316.1 305.7 315.2Q306.9 314.3 308.7 314.3L308.7 314.3Q310.5 314.3 311.8 315.2Q313.0 316.1 313.4 317.6L313.4 317.6L313.6 317.6Q314.2 316.1 315.6 315.2Q317.0 314.3 318.9 314.3L318.9 314.3Q321.3 314.3 322.9 315.9Q324.4 317.4 324.4 320.3L324.4 320.3L324.4 332L319.6 332L319.6 321.2Q319.6 319.8 318.8 319.0Q318.0 318.3 316.9 318.3L316.9 318.3Q315.5 318.3 314.8 319.1Q314.1 320.0 314.1 321.3L314.1 321.3L314.1 332L309.4 332L309.4 321.1Q309.4 319.8 308.6 319.1Q307.9 318.3 306.7 318.3L306.7 318.3Q305.9 318.3 305.3 318.7Q304.6 319.1 304.2 319.8Q303.9 320.6 303.9 321.5L303.9 321.5L303.9 332ZM336.2 332.3L336.2 332.3Q333.5 332.3 331.5 331.2Q329.6 330.1 328.5 328.1Q327.5 326.1 327.5 323.4L327.5 323.4Q327.5 320.7 328.5 318.6Q329.6 316.6 331.5 315.5Q333.4 314.3 336.0 314.3L336.0 314.3Q337.7 314.3 339.2 314.9Q340.7 315.4 341.8 316.5Q342.9 317.6 343.5 319.3Q344.2 321.0 344.2 323.2L344.2 323.2L344.2 324.5L329.4 324.5L329.4 321.5L339.6 321.5Q339.6 320.5 339.2 319.7Q338.7 318.9 337.9 318.4Q337.1 317.9 336.0 317.9L336.0 317.9Q334.9 317.9 334.1 318.4Q333.3 318.9 332.8 319.8Q332.3 320.6 332.3 321.7L332.3 321.7L332.3 324.5Q332.3 325.8 332.8 326.8Q333.3 327.7 334.1 328.2Q335.0 328.7 336.2 328.7L336.2 328.7Q337.0 328.7 337.7 328.5Q338.4 328.3 338.9 327.8Q339.3 327.4 339.6 326.7L339.6 326.7L344.1 327Q343.7 328.6 342.7 329.8Q341.6 331.0 340.0 331.7Q338.3 332.3 336.2 332.3Z M357.7 338.5L357.7 338.5Q356.8 338.5 356.0 338.4Q355.2 338.3 354.7 338.0L354.7 338.0L355.8 334.4Q356.6 334.7 357.3 334.7Q358.0 334.7 358.5 334.4Q359.0 334.1 359.3 333.2L359.3 333.2L359.6 332.5L353.4 314.5L358.5 314.5L362.1 327.4L362.3 327.4L365.9 314.5L371.0 314.5L364.2 333.9Q363.8 335.3 362.9 336.3Q362.1 337.4 360.8 338.0Q359.5 338.5 357.7 338.5ZM380.8 332.3L380.8 332.3Q378.2 332.3 376.2 331.2Q374.3 330.1 373.3 328.1Q372.2 326.0 372.2 323.3L372.2 323.3Q372.2 320.6 373.3 318.6Q374.3 316.6 376.2 315.4Q378.2 314.3 380.8 314.3L380.8 314.3Q383.5 314.3 385.4 315.4Q387.3 316.6 388.4 318.6Q389.4 320.6 389.4 323.3L389.4 323.3Q389.4 326.0 388.4 328.1Q387.3 330.1 385.4 331.2Q383.5 332.3 380.8 332.3ZM380.8 328.6L380.8 328.6Q382.0 328.6 382.8 327.9Q383.6 327.2 384.1 326.0Q384.5 324.8 384.5 323.3L384.5 323.3Q384.5 321.8 384.1 320.6Q383.6 319.4 382.8 318.7Q382.0 318.0 380.8 318.0L380.8 318.0Q379.6 318.0 378.8 318.7Q378.0 319.4 377.6 320.6Q377.1 321.8 377.1 323.3L377.1 323.3Q377.1 324.8 377.6 326.0Q378.0 327.2 378.8 327.9Q379.6 328.6 380.8 328.6ZM403.8 324.6L403.8 324.6L403.8 314.5L408.6 314.5L408.6 332L403.9 332L403.9 328.8L403.8 328.8Q403.2 330.4 401.8 331.3Q400.4 332.2 398.5 332.2L398.5 332.2Q396.7 332.2 395.4 331.4Q394.1 330.6 393.3 329.2Q392.6 327.7 392.6 325.7L392.6 325.7L392.6 314.5L397.4 314.5L397.4 324.8Q397.4 326.3 398.2 327.2Q399.0 328.1 400.4 328.1L400.4 328.1Q401.3 328.1 402.1 327.7Q402.8 327.3 403.3 326.5Q403.8 325.7 403.8 324.6ZM417.3 332L412.5 332L412.5 314.5L417.1 314.5L417.1 317.6L417.3 317.6Q417.8 316.0 418.9 315.1Q420.1 314.3 421.5 314.3L421.5 314.3Q421.9 314.3 422.3 314.3Q422.7 314.4 423.0 314.5L423.0 314.5L423.0 318.8Q422.7 318.7 422.1 318.6Q421.5 318.5 421 318.5L421 318.5Q419.9 318.5 419.1 319.0Q418.3 319.4 417.8 320.2Q417.3 321.1 417.3 322.1L417.3 322.1L417.3 332Z M444.7 314.5L449.8 314.5L443.7 332L438.3 332L432.1 314.5L437.3 314.5L440.9 327.0L441.1 327.0L444.7 314.5ZM456.8 332.3L456.8 332.3Q455.1 332.3 453.8 331.7Q452.5 331.2 451.7 330.0Q451.0 328.9 451.0 327.1L451.0 327.1Q451.0 325.7 451.5 324.7Q452.0 323.7 453.0 323.1Q453.9 322.5 455.1 322.2Q456.2 321.9 457.5 321.8L457.5 321.8Q459.1 321.6 460.0 321.4Q460.9 321.3 461.3 321.0Q461.8 320.7 461.8 320.2L461.8 320.2L461.8 320.1Q461.8 319.0 461.1 318.4Q460.4 317.9 459.2 317.9L459.2 317.9Q457.9 317.9 457.1 318.4Q456.3 319 456.1 319.9L456.1 319.9L451.6 319.5Q451.9 317.9 452.9 316.7Q453.9 315.6 455.5 314.9Q457.1 314.3 459.2 314.3L459.2 314.3Q460.6 314.3 462.0 314.7Q463.3 315 464.4 315.7Q465.4 316.4 466 317.6Q466.6 318.7 466.6 320.2L466.6 320.2L466.6 332L462.0 332L462.0 329.6L461.9 329.6Q461.5 330.4 460.8 331.0Q460.0 331.6 459.1 332.0Q458.1 332.3 456.8 332.3ZM458.2 329.0L458.2 329.0Q459.2 329.0 460.0 328.6Q460.9 328.1 461.3 327.4Q461.8 326.7 461.8 325.8L461.8 325.8L461.8 323.9Q461.6 324.1 461.2 324.2Q460.8 324.3 460.3 324.4Q459.8 324.5 459.3 324.6Q458.8 324.6 458.4 324.7L458.4 324.7Q457.6 324.8 456.9 325.1Q456.3 325.4 456.0 325.8Q455.6 326.3 455.6 327.0L455.6 327.0Q455.6 328.0 456.3 328.5Q457.0 329.0 458.2 329.0ZM475.2 332L470.4 332L470.4 314.5L475.1 314.5L475.1 317.6L475.2 317.6Q475.7 316.0 476.8 315.1Q478.0 314.3 479.4 314.3L479.4 314.3Q479.8 314.3 480.2 314.3Q480.6 314.4 481.0 314.5L481.0 314.5L481.0 318.8Q480.6 318.7 480.0 318.6Q479.4 318.5 478.9 318.5L478.9 318.5Q477.8 318.5 477.0 319.0Q476.2 319.4 475.7 320.2Q475.2 321.1 475.2 322.1L475.2 322.1L475.2 332ZM488.3 332L483.4 332L483.4 314.5L488.3 314.5L488.3 332ZM485.9 312.3L485.9 312.3Q484.8 312.3 484.0 311.6Q483.3 310.9 483.3 309.8L483.3 309.8Q483.3 308.8 484.0 308.1Q484.8 307.4 485.9 307.4L485.9 307.4Q487.0 307.4 487.7 308.1Q488.5 308.8 488.5 309.8L488.5 309.8Q488.5 310.9 487.7 311.6Q487.0 312.3 485.9 312.3ZM497.1 332.3L497.1 332.3Q495.5 332.3 494.1 331.7Q492.8 331.2 492.1 330.0Q491.3 328.9 491.3 327.1L491.3 327.1Q491.3 325.7 491.9 324.7Q492.4 323.7 493.3 323.1Q494.2 322.5 495.4 322.2Q496.6 321.9 497.9 321.8L497.9 321.8Q499.4 321.6 500.3 321.4Q501.3 321.3 501.7 321.0Q502.1 320.7 502.1 320.2L502.1 320.2L502.1 320.1Q502.1 319.0 501.4 318.4Q500.8 317.9 499.5 317.9L499.5 317.9Q498.2 317.9 497.4 318.4Q496.7 319 496.4 319.9L496.4 319.9L491.9 319.5Q492.3 317.9 493.3 316.7Q494.3 315.6 495.9 314.9Q497.5 314.3 499.5 314.3L499.5 314.3Q501 314.3 502.3 314.7Q503.7 315 504.7 315.7Q505.8 316.4 506.4 317.6Q507.0 318.7 507.0 320.2L507.0 320.2L507.0 332L502.4 332L502.4 329.6L502.2 329.6Q501.8 330.4 501.1 331.0Q500.4 331.6 499.4 332.0Q498.4 332.3 497.1 332.3ZM498.5 329.0L498.5 329.0Q499.6 329.0 500.4 328.6Q501.2 328.1 501.7 327.4Q502.1 326.7 502.1 325.8L502.1 325.8L502.1 323.9Q501.9 324.1 501.5 324.2Q501.1 324.3 500.6 324.4Q500.2 324.5 499.7 324.6Q499.2 324.6 498.8 324.7L498.8 324.7Q497.9 324.8 497.3 325.1Q496.7 325.4 496.3 325.8Q496.0 326.3 496.0 327.0L496.0 327.0Q496.0 328.0 496.7 328.5Q497.4 329.0 498.5 329.0ZM515.6 332L510.8 332L510.8 308.7L515.6 308.7L515.6 317.5L515.8 317.5Q516.1 316.8 516.7 316.0Q517.3 315.3 518.3 314.8Q519.3 314.3 520.8 314.3L520.8 314.3Q522.7 314.3 524.3 315.3Q525.9 316.3 526.9 318.3Q527.8 320.3 527.8 323.3L527.8 323.3Q527.8 326.2 526.9 328.2Q526.0 330.2 524.3 331.3Q522.7 332.3 520.8 332.3L520.8 332.3Q519.3 332.3 518.4 331.8Q517.4 331.4 516.8 330.6Q516.1 329.9 515.8 329.2L515.8 329.2L515.6 329.2L515.6 332ZM515.5 323.3L515.5 323.3Q515.5 324.8 516.0 326.0Q516.4 327.1 517.2 327.8Q518.0 328.4 519.2 328.4L519.2 328.4Q520.4 328.4 521.2 327.8Q522.0 327.1 522.5 326.0Q522.9 324.8 522.9 323.3L522.9 323.3Q522.9 321.8 522.5 320.6Q522.0 319.5 521.2 318.8Q520.4 318.2 519.2 318.2L519.2 318.2Q518.0 318.2 517.2 318.8Q516.4 319.4 516.0 320.6Q515.5 321.7 515.5 323.3ZM531.0 308.7L535.9 308.7L535.9 332L531.0 332L531.0 308.7ZM547.7 332.3L547.7 332.3Q545.0 332.3 543.1 331.2Q541.1 330.1 540.1 328.1Q539.0 326.1 539.0 323.4L539.0 323.4Q539.0 320.7 540.1 318.6Q541.1 316.6 543.0 315.5Q544.9 314.3 547.5 314.3L547.5 314.3Q549.2 314.3 550.7 314.9Q552.2 315.4 553.3 316.5Q554.5 317.6 555.1 319.3Q555.7 321.0 555.7 323.2L555.7 323.2L555.7 324.5L541.0 324.5L541.0 321.5L551.2 321.5Q551.2 320.5 550.7 319.7Q550.3 318.9 549.4 318.4Q548.6 317.9 547.6 317.9L547.6 317.9Q546.5 317.9 545.6 318.4Q544.8 318.9 544.3 319.8Q543.8 320.6 543.8 321.7L543.8 321.7L543.8 324.5Q543.8 325.8 544.3 326.8Q544.8 327.7 545.7 328.2Q546.6 328.7 547.8 328.7L547.8 328.7Q548.6 328.7 549.3 328.5Q549.9 328.3 550.4 327.8Q550.9 327.4 551.1 326.7L551.1 326.7L555.6 327Q555.3 328.6 554.2 329.8Q553.2 331.0 551.5 331.7Q549.9 332.3 547.7 332.3ZM573.4 319.5L573.4 319.5L569.0 319.8Q568.9 319.2 568.5 318.8Q568.1 318.3 567.5 318.0Q566.9 317.8 566.0 317.8L566.0 317.8Q564.9 317.8 564.1 318.2Q563.4 318.7 563.4 319.5L563.4 319.5Q563.4 320.1 563.9 320.5Q564.4 321.0 565.6 321.2L565.6 321.2L568.8 321.9Q571.3 322.4 572.5 323.5Q573.8 324.7 573.8 326.6L573.8 326.6Q573.8 328.3 572.8 329.6Q571.8 330.9 570.0 331.6Q568.3 332.3 566.0 332.3L566.0 332.3Q562.6 332.3 560.5 330.9Q558.5 329.4 558.1 326.9L558.1 326.9L562.9 326.7Q563.1 327.8 563.9 328.3Q564.7 328.9 566.0 328.9L566.0 328.9Q567.3 328.9 568.1 328.4Q568.9 327.9 568.9 327.1L568.9 327.1Q568.9 326.4 568.3 326.0Q567.8 325.6 566.6 325.3L566.6 325.3L563.6 324.7Q561.1 324.2 559.8 323.0Q558.6 321.7 558.6 319.8L558.6 319.8Q558.6 318.1 559.5 316.9Q560.4 315.6 562.1 315.0Q563.7 314.3 566.0 314.3L566.0 314.3Q569.3 314.3 571.2 315.7Q573.1 317.1 573.4 319.5Z M589.6 332L584.8 332L584.8 314.5L589.6 314.5L589.6 332ZM587.2 312.3L587.2 312.3Q586.1 312.3 585.3 311.6Q584.6 310.9 584.6 309.8L584.6 309.8Q584.6 308.8 585.3 308.1Q586.1 307.4 587.2 307.4L587.2 307.4Q588.3 307.4 589.0 308.1Q589.8 308.8 589.8 309.8L589.8 309.8Q589.8 310.9 589.0 311.6Q588.3 312.3 587.2 312.3ZM598.3 321.9L598.3 321.9L598.3 332L593.5 332L593.5 314.5L598.1 314.5L598.1 317.6L598.3 317.6Q598.9 316.1 600.2 315.2Q601.6 314.3 603.5 314.3L603.5 314.3Q605.4 314.3 606.7 315.1Q608.1 315.9 608.8 317.4Q609.6 318.9 609.6 320.9L609.6 320.9L609.6 332L604.7 332L604.7 321.8Q604.7 320.1 603.9 319.2Q603.1 318.3 601.6 318.3L601.6 318.3Q600.6 318.3 599.9 318.8Q599.1 319.2 598.7 320.0Q598.3 320.8 598.3 321.9Z M630.2 325.0L630.2 308.7L635.1 308.7L635.1 325.0Q635.1 327.2 634.1 328.9Q633.0 330.5 631.3 331.4Q629.5 332.3 627.1 332.3L627.1 332.3Q625.0 332.3 623.3 331.6Q621.6 330.8 620.6 329.3Q619.6 327.8 619.6 325.5L619.6 325.5L624.5 325.5Q624.5 326.4 624.9 327.0Q625.2 327.7 625.9 328.0Q626.5 328.4 627.4 328.4L627.4 328.4Q628.3 328.4 628.9 328.0Q629.5 327.6 629.9 326.8Q630.2 326.1 630.2 325.0L630.2 325.0ZM656.5 315.4L651.7 315.4Q651.6 314.0 650.6 313.3Q649.5 312.5 647.8 312.5L647.8 312.5Q646.6 312.5 645.7 312.9Q644.9 313.2 644.5 313.8Q644.0 314.4 644.0 315.1L644.0 315.1Q644 315.8 644.3 316.2Q644.6 316.7 645.1 317.0Q645.6 317.4 646.3 317.6Q646.9 317.8 647.7 318.0L647.7 318.0L649.8 318.5Q651.3 318.9 652.6 319.4Q653.9 320.0 654.8 320.8Q655.7 321.6 656.2 322.8Q656.8 323.9 656.8 325.4L656.8 325.4Q656.8 327.5 655.7 329.1Q654.6 330.6 652.6 331.5Q650.6 332.3 647.7 332.3L647.7 332.3Q644.9 332.3 642.8 331.5Q640.8 330.6 639.6 328.9Q638.4 327.2 638.4 324.7L638.4 324.7L643.1 324.7Q643.2 325.9 643.8 326.6Q644.4 327.4 645.4 327.8Q646.4 328.2 647.7 328.2L647.7 328.2Q648.9 328.2 649.9 327.8Q650.8 327.5 651.3 326.8Q651.8 326.2 651.8 325.3L651.8 325.3Q651.8 324.6 651.3 324.0Q650.9 323.5 650.0 323.1Q649.1 322.7 647.9 322.4L647.9 322.4L645.3 321.8Q642.4 321.1 640.7 319.6Q639.0 318.0 639.0 315.5L639.0 315.5Q639.0 313.3 640.1 311.8Q641.3 310.2 643.3 309.3Q645.3 308.4 647.8 308.4L647.8 308.4Q650.4 308.4 652.3 309.3Q654.3 310.2 655.3 311.8Q656.4 313.3 656.5 315.4L656.5 315.4Z "/></g></svg>