<svg width="800" height="400" viewBox="0 0 800 400" xmlns="http://www.w3.org/2000/svg"><mask id="satori_om-id"><rect x="0" y="0" width="800" height="400" fill="#fff"/></mask><rect x="0" y="0" width="800" height="400" fill="#fff"/><clipPath id="satori_cp-id-0"><rect x="350" y="111" width="100" height="100"/></clipPath><mask id="satori_om-id-0"><rect x="350" y="111" width="100" height="100" fill="#fff"/></mask><image x="350" y="111" width="100" height="100" href="data:image/svg+xml;utf8,%3Csvg  xmlns=%22http://www.w3.org/2000/svg%22 preserveAspectRatio=%22xMinYMin meet%22 width=%22NaN%22 height=%22NaN%22 viewBox=%220 0 256 256%22%3E%3Cpath d=%22M0 0h256v256H0V0z%22 fill=%22%23F7DF1E%22%3E%3C/path%3E%3Cpath d=%22M67.312 213.932l19.59-11.856c3.78 6.701 7.218 12.371 15.465 12.371 7.905 0 12.89-3.092 12.89-15.12v-81.798h24.057v82.138c0 24.917-14.606 36.259-35.916 36.259-19.245 0-30.416-9.967-36.087-21.996M152.381 211.354l19.588-11.341c5.157 8.421 11.859 14.607 23.715 14.607 9.969 0 16.325-4.984 16.325-11.858 0-8.248-6.53-11.17-17.528-15.98l-6.013-2.58c-17.357-7.387-28.87-16.667-28.87-36.257 0-18.044 13.747-31.792 35.228-31.792 15.294 0 26.292 5.328 34.196 19.247L210.29 147.43c-4.125-7.389-8.591-10.31-15.465-10.31-7.046 0-11.514 4.468-11.514 10.31 0 7.217 4.468 10.14 14.778 14.608l6.014 2.577c20.45 8.765 31.963 17.7 31.963 37.804 0 21.654-17.012 33.51-39.867 33.51-22.339 0-36.774-10.654-43.819-24.574%22%3E%3C/path%3E%3C/svg%3E" preserveAspectRatio="none" clip-path="url(#satori_cp-id-0)" mask="url(#satori_om-id-0)"/><mask id="satori_om-id-0-0"><rect x="350" y="111" width="0" height="100" fill="#fff"/></mask><mask id="satori_om-id-0-1"><rect x="350" y="111" width="0" height="100" fill="#fff"/></mask><mask id="satori_om-id-1"><rect x="128" y="251" width="545" height="39" fill="#fff"/></mask><g  ><path fill="black" d="M134.9 282L130.0 282L130.0 258.7L134.9 258.7L134.9 268.3L144.9 268.3L144.9 258.7L149.8 258.7L149.8 282L144.9 282L144.9 272.4L134.9 272.4L134.9 282ZM161.7 282.3L161.7 282.3Q159.0 282.3 157.1 281.2Q155.2 280.1 154.1 278.1Q153.1 276.0 153.1 273.3L153.1 273.3Q153.1 270.6 154.1 268.6Q155.2 266.6 157.1 265.4Q159.0 264.3 161.7 264.3L161.7 264.3Q164.3 264.3 166.3 265.4Q168.2 266.6 169.2 268.6Q170.3 270.6 170.3 273.3L170.3 273.3Q170.3 276.0 169.2 278.1Q168.2 280.1 166.3 281.2Q164.3 282.3 161.7 282.3ZM161.7 278.6L161.7 278.6Q162.9 278.6 163.7 277.9Q164.5 277.2 164.9 276.0Q165.4 274.8 165.4 273.3L165.4 273.3Q165.4 271.8 164.9 270.6Q164.5 269.4 163.7 268.7Q162.9 268.0 161.7 268.0L161.7 268.0Q160.5 268.0 159.7 268.7Q158.9 269.4 158.4 270.6Q158.0 271.8 158.0 273.3L158.0 273.3Q158.0 274.8 158.4 276.0Q158.9 277.2 159.7 277.9Q160.5 278.6 161.7 278.6ZM181.6 282L176.5 282L171.7 264.5L176.6 264.5L179.3 276.3L179.5 276.3L182.3 264.5L187.1 264.5L190.0 276.2L190.1 276.2L192.8 264.5L197.6 264.5L192.9 282L187.8 282L184.8 271.0L184.6 271.0L181.6 282Z M217.5 275.0L217.5 258.7L222.3 258.7L222.3 275.0Q222.3 277.2 221.3 278.9Q220.3 280.5 218.5 281.4Q216.8 282.3 214.4 282.3L214.4 282.3Q212.3 282.3 210.6 281.6Q208.9 280.8 207.9 279.3Q206.9 277.8 206.9 275.5L206.9 275.5L211.8 275.5Q211.8 276.4 212.2 277.0Q212.5 277.7 213.2 278.0Q213.8 278.4 214.6 278.4L214.6 278.4Q215.6 278.4 216.2 278.0Q216.8 277.6 217.1 276.8Q217.5 276.1 217.5 275.0L217.5 275.0ZM243.7 265.4L239.0 265.4Q238.9 264.0 237.9 263.3Q236.8 262.5 235.0 262.5L235.0 262.5Q233.8 262.5 233.0 262.9Q232.2 263.2 231.7 263.8Q231.3 264.4 231.3 265.1L231.3 265.1Q231.3 265.8 231.6 266.2Q231.9 266.7 232.4 267.0Q232.9 267.4 233.6 267.6Q234.2 267.8 235.0 268.0L235.0 268.0L237.1 268.5Q238.6 268.9 239.9 269.4Q241.1 270.0 242.1 270.8Q243.0 271.6 243.5 272.8Q244.0 273.9 244.1 275.4L244.1 275.4Q244.0 277.5 243.0 279.1Q241.9 280.6 239.9 281.5Q237.9 282.3 235.0 282.3L235.0 282.3Q232.2 282.3 230.1 281.5Q228.0 280.6 226.9 278.9Q225.7 277.2 225.6 274.7L225.6 274.7L230.4 274.7Q230.5 275.9 231.1 276.6Q231.7 277.4 232.7 277.8Q233.7 278.2 235.0 278.2L235.0 278.2Q236.2 278.2 237.1 277.8Q238.1 277.5 238.6 276.8Q239.1 276.2 239.1 275.3L239.1 275.3Q239.1 274.6 238.6 274.0Q238.2 273.5 237.3 273.1Q236.4 272.7 235.1 272.4L235.1 272.4L232.6 271.8Q229.7 271.1 228.0 269.6Q226.3 268.0 226.3 265.5L226.3 265.5Q226.3 263.3 227.4 261.8Q228.5 260.2 230.5 259.3Q232.5 258.4 235.1 258.4L235.1 258.4Q237.7 258.4 239.6 259.3Q241.5 260.2 242.6 261.8Q243.7 263.3 243.7 265.4L243.7 265.4Z M269.2 269.5L269.2 269.5L264.8 269.8Q264.7 269.2 264.3 268.8Q263.9 268.3 263.3 268.0Q262.7 267.8 261.9 267.8L261.9 267.8Q260.7 267.8 260.0 268.2Q259.2 268.7 259.2 269.5L259.2 269.5Q259.2 270.1 259.7 270.5Q260.2 271.0 261.4 271.2L261.4 271.2L264.6 271.9Q267.1 272.4 268.4 273.5Q269.6 274.7 269.6 276.6L269.6 276.6Q269.6 278.3 268.6 279.6Q267.6 280.9 265.8 281.6Q264.1 282.3 261.8 282.3L261.8 282.3Q258.4 282.3 256.3 280.9Q254.3 279.4 253.9 276.9L253.9 276.9L258.7 276.7Q258.9 277.8 259.7 278.3Q260.5 278.9 261.8 278.9L261.8 278.9Q263.1 278.9 263.9 278.4Q264.7 277.9 264.7 277.1L264.7 277.1Q264.7 276.4 264.1 276.0Q263.6 275.6 262.4 275.3L262.4 275.3L259.4 274.7Q256.9 274.2 255.6 273.0Q254.4 271.7 254.4 269.8L254.4 269.8Q254.4 268.1 255.3 266.9Q256.2 265.6 257.9 265.0Q259.5 264.3 261.8 264.3L261.8 264.3Q265.1 264.3 267.0 265.7Q268.9 267.1 269.2 269.5ZM271.4 264.5L281.9 264.5L281.9 268.2L271.4 268.2L271.4 264.5ZM273.8 277.3L273.8 260.4L278.7 260.4L278.7 276.6Q278.7 277.3 278.9 277.7Q279.1 278.0 279.4 278.2Q279.8 278.3 280.3 278.3L280.3 278.3Q280.6 278.3 281.0 278.3Q281.3 278.2 281.5 278.2L281.5 278.2L282.3 281.8Q281.9 281.9 281.2 282.1Q280.6 282.2 279.6 282.2L279.6 282.2Q277.9 282.3 276.6 281.8Q275.3 281.2 274.5 280.1Q273.8 279.0 273.8 277.3L273.8 277.3ZM292.8 282.3L292.8 282.3Q290.1 282.3 288.2 281.2Q286.3 280.1 285.3 278.1Q284.2 276.0 284.2 273.3L284.2 273.3Q284.2 270.6 285.3 268.6Q286.3 266.6 288.2 265.4Q290.1 264.3 292.8 264.3L292.8 264.3Q295.4 264.3 297.4 265.4Q299.3 266.6 300.3 268.6Q301.4 270.6 301.4 273.3L301.4 273.3Q301.4 276.0 300.3 278.1Q299.3 280.1 297.4 281.2Q295.4 282.3 292.8 282.3ZM292.8 278.6L292.8 278.6Q294.0 278.6 294.8 277.9Q295.6 277.2 296.1 276.0Q296.5 274.8 296.5 273.3L296.5 273.3Q296.5 271.8 296.1 270.6Q295.6 269.4 294.8 268.7Q294.0 268.0 292.8 268.0L292.8 268.0Q291.6 268.0 290.8 268.7Q290.0 269.4 289.5 270.6Q289.1 271.8 289.1 273.3L289.1 273.3Q289.1 274.8 289.5 276.0Q290.0 277.2 290.8 277.9Q291.6 278.6 292.8 278.6ZM309.4 282L304.5 282L304.5 264.5L309.2 264.5L309.2 267.6L309.4 267.6Q309.9 266.0 311.0 265.1Q312.1 264.3 313.6 264.3L313.6 264.3Q314.0 264.3 314.4 264.3Q314.8 264.4 315.1 264.5L315.1 264.5L315.1 268.8Q314.8 268.7 314.2 268.6Q313.6 268.5 313.1 268.5L313.1 268.5Q312.0 268.5 311.2 269.0Q310.4 269.4 309.9 270.2Q309.4 271.1 309.4 272.1L309.4 272.1L309.4 282ZM324.8 282.3L324.8 282.3Q322.1 282.3 320.1 281.2Q318.2 280.1 317.1 278.1Q316.1 276.1 316.1 273.4L316.1 273.4Q316.1 270.7 317.1 268.6Q318.2 266.6 320.1 265.5Q322 264.3 324.6 264.3L324.6 264.3Q326.3 264.3 327.8 264.9Q329.3 265.4 330.4 266.5Q331.5 267.6 332.1 269.3Q332.8 271.0 332.8 273.2L332.8 273.2L332.8 274.5L318.0 274.5L318.0 271.5L328.2 271.5Q328.2 270.5 327.8 269.7Q327.3 268.9 326.5 268.4Q325.7 267.9 324.6 267.9L324.6 267.9Q323.5 267.9 322.7 268.4Q321.9 268.9 321.4 269.8Q320.9 270.6 320.9 271.7L320.9 271.7L320.9 274.5Q320.9 275.8 321.4 276.8Q321.9 277.7 322.7 278.2Q323.6 278.7 324.8 278.7L324.8 278.7Q325.6 278.7 326.3 278.5Q327.0 278.3 327.5 277.8Q327.9 277.4 328.2 276.7L328.2 276.7L332.7 277Q332.3 278.6 331.3 279.8Q330.2 281.0 328.6 281.7Q326.9 282.3 324.8 282.3ZM350.5 269.5L350.5 269.5L346.0 269.8Q345.9 269.2 345.5 268.8Q345.2 268.3 344.6 268.0Q343.9 267.8 343.1 267.8L343.1 267.8Q342.0 267.8 341.2 268.2Q340.4 268.7 340.4 269.5L340.4 269.5Q340.4 270.1 340.9 270.5Q341.4 271.0 342.6 271.2L342.6 271.2L345.8 271.9Q348.4 272.4 349.6 273.5Q350.9 274.7 350.9 276.6L350.9 276.6Q350.9 278.3 349.8 279.6Q348.8 280.9 347.1 281.6Q345.4 282.3 343.1 282.3L343.1 282.3Q339.6 282.3 337.6 280.9Q335.5 279.4 335.2 276.9L335.2 276.9L339.9 276.7Q340.1 277.8 341.0 278.3Q341.8 278.9 343.1 278.9L343.1 278.9Q344.4 278.9 345.1 278.4Q345.9 277.9 345.9 277.1L345.9 277.1Q345.9 276.4 345.4 276.0Q344.8 275.6 343.7 275.3L343.7 275.3L340.7 274.7Q338.1 274.2 336.9 273.0Q335.6 271.7 335.6 269.8L335.6 269.8Q335.6 268.1 336.5 266.9Q337.5 265.6 339.1 265.0Q340.8 264.3 343.0 264.3L343.0 264.3Q346.3 264.3 348.2 265.7Q350.1 267.1 350.5 269.5Z M367.2 271.9L367.2 271.9L367.2 282L362.3 282L362.3 264.5L366.9 264.5L366.9 267.6L367.1 267.6Q367.7 266.1 369.1 265.2Q370.5 264.3 372.4 264.3L372.4 264.3Q374.2 264.3 375.6 265.1Q376.9 265.9 377.7 267.4Q378.4 268.9 378.4 270.9L378.4 270.9L378.4 282L373.6 282L373.6 271.8Q373.6 270.1 372.8 269.2Q371.9 268.3 370.5 268.3L370.5 268.3Q369.5 268.3 368.8 268.8Q368.0 269.2 367.6 270.0Q367.2 270.8 367.2 271.9ZM393.4 274.6L393.4 274.6L393.4 264.5L398.3 264.5L398.3 282L393.6 282L393.6 278.8L393.4 278.8Q392.8 280.4 391.5 281.3Q390.1 282.2 388.1 282.2L388.1 282.2Q386.4 282.2 385.1 281.4Q383.7 280.6 383.0 279.2Q382.2 277.7 382.2 275.7L382.2 275.7L382.2 264.5L387.1 264.5L387.1 274.8Q387.1 276.3 387.9 277.2Q388.7 278.1 390.1 278.1L390.1 278.1Q391.0 278.1 391.7 277.7Q392.5 277.3 393.0 276.5Q393.4 275.7 393.4 274.6ZM407.0 282L402.1 282L402.1 264.5L406.7 264.5L406.7 267.6L406.9 267.6Q407.5 266.1 408.8 265.2Q410.0 264.3 411.8 264.3L411.8 264.3Q413.6 264.3 414.9 265.2Q416.1 266.1 416.5 267.6L416.5 267.6L416.7 267.6Q417.3 266.1 418.7 265.2Q420.1 264.3 422.0 264.3L422.0 264.3Q424.4 264.3 426.0 265.9Q427.5 267.4 427.5 270.3L427.5 270.3L427.5 282L422.7 282L422.7 271.2Q422.7 269.8 421.9 269.0Q421.1 268.3 420.0 268.3L420.0 268.3Q418.6 268.3 417.9 269.1Q417.2 270.0 417.2 271.3L417.2 271.3L417.2 282L412.5 282L412.5 271.1Q412.5 269.8 411.7 269.1Q411.0 268.3 409.8 268.3L409.8 268.3Q409.0 268.3 408.4 268.7Q407.7 269.1 407.3 269.8Q407.0 270.6 407.0 271.5L407.0 271.5L407.0 282ZM436.2 282L431.4 282L431.4 258.7L436.2 258.7L436.2 267.5L436.4 267.5Q436.7 266.8 437.3 266.0Q437.9 265.3 438.9 264.8Q439.9 264.3 441.4 264.3L441.4 264.3Q443.3 264.3 444.9 265.3Q446.5 266.3 447.5 268.3Q448.4 270.3 448.4 273.3L448.4 273.3Q448.4 276.2 447.5 278.2Q446.5 280.2 444.9 281.3Q443.3 282.3 441.3 282.3L441.3 282.3Q439.9 282.3 438.9 281.8Q438.0 281.4 437.3 280.6Q436.7 279.9 436.4 279.2L436.4 279.2L436.2 279.2L436.2 282ZM436.1 273.3L436.1 273.3Q436.1 274.8 436.6 276.0Q437.0 277.1 437.8 277.8Q438.6 278.4 439.8 278.4L439.8 278.4Q441.0 278.4 441.8 277.8Q442.6 277.1 443.1 276.0Q443.5 274.8 443.5 273.3L443.5 273.3Q443.5 271.8 443.1 270.6Q442.6 269.5 441.8 268.8Q441.0 268.2 439.8 268.2L439.8 268.2Q438.6 268.2 437.8 268.8Q437.0 269.4 436.6 270.6Q436.1 271.7 436.1 273.3ZM459.6 282.3L459.6 282.3Q456.9 282.3 455.0 281.2Q453.0 280.1 452.0 278.1Q450.9 276.1 450.9 273.4L450.9 273.4Q450.9 270.7 452.0 268.6Q453.0 266.6 454.9 265.5Q456.8 264.3 459.4 264.3L459.4 264.3Q461.1 264.3 462.6 264.9Q464.1 265.4 465.2 266.5Q466.4 267.6 467.0 269.3Q467.6 271.0 467.6 273.2L467.6 273.2L467.6 274.5L452.9 274.5L452.9 271.5L463.0 271.5Q463.0 270.5 462.6 269.7Q462.1 268.9 461.3 268.4Q460.5 267.9 459.5 267.9L459.5 267.9Q458.4 267.9 457.5 268.4Q456.7 268.9 456.2 269.8Q455.7 270.6 455.7 271.7L455.7 271.7L455.7 274.5Q455.7 275.8 456.2 276.8Q456.7 277.7 457.6 278.2Q458.5 278.7 459.7 278.7L459.7 278.7Q460.5 278.7 461.1 278.5Q461.8 278.3 462.3 277.8Q462.8 277.4 463.0 276.7L463.0 276.7L467.5 277Q467.2 278.6 466.1 279.8Q465.1 281.0 463.4 281.7Q461.7 282.3 459.6 282.3ZM475.6 282L470.8 282L470.8 264.5L475.5 264.5L475.5 267.6L475.6 267.6Q476.1 266.0 477.2 265.1Q478.4 264.3 479.8 264.3L479.8 264.3Q480.2 264.3 480.6 264.3Q481.0 264.4 481.4 264.5L481.4 264.5L481.4 268.8Q481.0 268.7 480.4 268.6Q479.8 268.5 479.3 268.5L479.3 268.5Q478.2 268.5 477.4 269.0Q476.6 269.4 476.1 270.2Q475.6 271.1 475.6 272.1L475.6 272.1L475.6 282ZM498.4 269.5L498.4 269.5L493.9 269.8Q493.8 269.2 493.4 268.8Q493.1 268.3 492.5 268.0Q491.9 267.8 491.0 267.8L491.0 267.8Q489.9 267.8 489.1 268.2Q488.3 268.7 488.3 269.5L488.3 269.5Q488.3 270.1 488.8 270.5Q489.3 271.0 490.6 271.2L490.6 271.2L493.7 271.9Q496.3 272.4 497.5 273.5Q498.8 274.7 498.8 276.6L498.8 276.6Q498.8 278.3 497.8 279.6Q496.7 280.9 495.0 281.6Q493.3 282.3 491.0 282.3L491.0 282.3Q487.5 282.3 485.5 280.9Q483.4 279.4 483.1 276.9L483.1 276.9L487.8 276.7Q488.0 277.8 488.9 278.3Q489.7 278.9 491.0 278.9L491.0 278.9Q492.3 278.9 493.1 278.4Q493.8 277.9 493.8 277.1L493.8 277.1Q493.8 276.4 493.3 276.0Q492.7 275.6 491.6 275.3L491.6 275.3L488.6 274.7Q486.0 274.2 484.8 273.0Q483.5 271.7 483.5 269.8L483.5 269.8Q483.5 268.1 484.4 266.9Q485.4 265.6 487.0 265.0Q488.7 264.3 490.9 264.3L490.9 264.3Q494.2 264.3 496.1 265.7Q498.0 267.1 498.4 269.5Z M514.1 282L509.2 282L509.2 264.5L514.1 264.5L514.1 282ZM511.7 262.3L511.7 262.3Q510.6 262.3 509.8 261.6Q509.1 260.9 509.1 259.8L509.1 259.8Q509.1 258.8 509.8 258.1Q510.6 257.4 511.7 257.4L511.7 257.4Q512.8 257.4 513.5 258.1Q514.3 258.8 514.3 259.8L514.3 259.8Q514.3 260.9 513.5 261.6Q512.8 262.3 511.7 262.3ZM522.8 271.9L522.8 271.9L522.8 282L517.9 282L517.9 264.5L522.6 264.5L522.6 267.6L522.8 267.6Q523.3 266.1 524.7 265.2Q526.1 264.3 528.0 264.3L528.0 264.3Q529.8 264.3 531.2 265.1Q532.5 265.9 533.3 267.4Q534.0 268.9 534.0 270.9L534.0 270.9L534.0 282L529.2 282L529.2 271.8Q529.2 270.1 528.4 269.2Q527.5 268.3 526.1 268.3L526.1 268.3Q525.1 268.3 524.4 268.8Q523.6 269.2 523.2 270.0Q522.8 270.8 522.8 271.9Z M545.4 282L545.4 258.7L551.4 258.7L557.8 274.4L558.1 274.4L564.5 258.7L570.6 258.7L570.6 282L565.8 282L565.8 266.9L565.6 266.9L559.6 281.9L556.3 281.9L550.3 266.8L550.1 266.8L550.1 282L545.4 282ZM582.5 282.3L582.5 282.3Q579.8 282.3 577.9 281.2Q575.9 280.1 574.9 278.1Q573.8 276.1 573.8 273.4L573.8 273.4Q573.8 270.7 574.9 268.6Q575.9 266.6 577.8 265.5Q579.7 264.3 582.3 264.3L582.3 264.3Q584.0 264.3 585.5 264.9Q587.0 265.4 588.1 266.5Q589.3 267.6 589.9 269.3Q590.5 271.0 590.5 273.2L590.5 273.2L590.5 274.5L575.8 274.5L575.8 271.5L585.9 271.5Q585.9 270.5 585.5 269.7Q585.0 268.9 584.2 268.4Q583.4 267.9 582.4 267.9L582.4 267.9Q581.3 267.9 580.4 268.4Q579.6 268.9 579.1 269.8Q578.6 270.6 578.6 271.7L578.6 271.7L578.6 274.5Q578.6 275.8 579.1 276.8Q579.6 277.7 580.5 278.2Q581.4 278.7 582.6 278.7L582.6 278.7Q583.4 278.7 584.0 278.5Q584.7 278.3 585.2 277.8Q585.7 277.4 585.9 276.7L585.9 276.7L590.4 277Q590.1 278.6 589.0 279.8Q588.0 281.0 586.3 281.7Q584.6 282.3 582.5 282.3ZM598.5 282L593.7 282L593.7 264.5L598.3 264.5L598.3 267.6L598.5 267.6Q599.0 266.1 600.3 265.2Q601.6 264.3 603.3 264.3L603.3 264.3Q605.1 264.3 606.4 265.2Q607.7 266.1 608.1 267.6L608.1 267.6L608.3 267.6Q608.8 266.1 610.2 265.2Q611.6 264.3 613.5 264.3L613.5 264.3Q616.0 264.3 617.5 265.9Q619.0 267.4 619.0 270.3L619.0 270.3L619.0 282L614.2 282L614.2 271.2Q614.2 269.8 613.4 269.0Q612.6 268.3 611.5 268.3L611.5 268.3Q610.2 268.3 609.4 269.1Q608.7 270.0 608.7 271.3L608.7 271.3L608.7 282L604 282L604 271.1Q604 269.8 603.3 269.1Q602.5 268.3 601.3 268.3L601.3 268.3Q600.5 268.3 599.9 268.7Q599.3 269.1 598.9 269.8Q598.5 270.6 598.5 271.5L598.5 271.5L598.5 282ZM630.7 282.3L630.7 282.3Q628.1 282.3 626.2 281.2Q624.2 280.1 623.2 278.1Q622.1 276.0 622.1 273.3L622.1 273.3Q622.1 270.6 623.2 268.6Q624.2 266.6 626.2 265.4Q628.1 264.3 630.7 264.3L630.7 264.3Q633.4 264.3 635.3 265.4Q637.2 266.6 638.3 268.6Q639.3 270.6 639.3 273.3L639.3 273.3Q639.3 276.0 638.3 278.1Q637.2 280.1 635.3 281.2Q633.4 282.3 630.7 282.3ZM630.8 278.6L630.8 278.6Q632.0 278.6 632.8 277.9Q633.6 277.2 634.0 276.0Q634.4 274.8 634.4 273.3L634.4 273.3Q634.4 271.8 634.0 270.6Q633.6 269.4 632.8 268.7Q632.0 268.0 630.8 268.0L630.8 268.0Q629.5 268.0 628.7 268.7Q627.9 269.4 627.5 270.6Q627.1 271.8 627.1 273.3L627.1 273.3Q627.1 274.8 627.5 276.0Q627.9 277.2 628.7 277.9Q629.5 278.6 630.8 278.6ZM647.3 282L642.5 282L642.5 264.5L647.2 264.5L647.2 267.6L647.4 267.6Q647.8 266.0 649.0 265.1Q650.1 264.3 651.5 264.3L651.5 264.3Q651.9 264.3 652.3 264.3Q652.8 264.4 653.1 264.5L653.1 264.5L653.1 268.8Q652.7 268.7 652.1 268.6Q651.5 268.5 651.0 268.5L651.0 268.5Q650.0 268.5 649.1 269.0Q648.3 269.4 647.8 270.2Q647.3 271.1 647.3 272.1L647.3 272.1L647.3 282ZM659.1 288.5L659.1 288.5Q658.2 288.5 657.4 288.4Q656.6 288.3 656.0 288.0L656.0 288.0L657.1 284.4Q658.0 284.7 658.7 284.7Q659.4 284.7 659.9 284.4Q660.4 284.1 660.7 283.2L660.7 283.2L661.0 282.5L654.7 264.5L659.8 264.5L663.4 277.4L663.6 277.4L667.3 264.5L672.4 264.5L665.6 283.9Q665.1 285.3 664.3 286.3Q663.4 287.4 662.2 288.0Q660.9 288.5 659.1 288.5Z "/></g></svg>